<?xml version="1.0" encoding="UTF-8" standalone="no"?>
<!-- Created with Inkscape (http://www.inkscape.org/) -->

<svg
   xmlns:dc="http://purl.org/dc/elements/1.1/"
   xmlns:cc="http://creativecommons.org/ns#"
   xmlns:rdf="http://www.w3.org/1999/02/22-rdf-syntax-ns#"
   xmlns:svg="http://www.w3.org/2000/svg"
   xmlns="http://www.w3.org/2000/svg"
   xmlns:sodipodi="http://sodipodi.sourceforge.net/DTD/sodipodi-0.dtd"
   xmlns:inkscape="http://www.inkscape.org/namespaces/inkscape"
   version="1.1"
   id="svg130"
   width="78.080002"
   height="63.892551"
   viewBox="0 0 78.080002 63.892551"
   sodipodi:docname="adv-icon-1.svg"
   inkscape:version="0.92.4 (unknown)">
  <path
     style="stroke-width:0.31999999"
     d="M 5.979193,63.6691 C 4.51486,63.224658 2.853055,61.759832 2.212197,60.348623 1.672428,59.160012 1.61337,58.12173 1.607028,49.709183 l -0.007,-9.322291 1.200001,0.428246 c 0.930692,0.332138 4.363264,0.431395 15.295125,0.442291 l 14.095124,0.01404 1.104877,1.664966 c 2.83841,4.277277 8.651338,4.277277 11.489748,0 l 1.104877,-1.664966 h 14.185402 c 11.763206,0 14.377837,-0.0804 15.312374,-0.470877 l 1.12697,-0.47088 -0.09725,9.67088 C 76.306984,60.968887 76.301473,60.994384 73.637227,62.86704 l -1.372103,0.964429 -32.692548,0.05551 C 21.591675,63.917509 6.474665,63.819459 5.979221,63.669091 Z M 36.91299,42.255045 c -1.24776,-0.760841 -1.841111,-2.417603 -1.6348,-4.564713 0.186944,-1.945575 1.049705,-3.173831 2.592374,-3.690599 2.481101,-0.831123 4.652954,0.794314 4.931248,3.690599 0.300948,3.132012 -1.185789,5.178748 -3.761811,5.178748 -0.616,0 -1.573155,-0.276316 -2.127011,-0.614035 z M 2.987866,35.666927 C 2.057601,35.109317 1.405986,34.36726 0.827866,33.207122 0.002182,31.550192 0,31.524217 0,23.351474 c 0,-8.180544 0.0014,-8.197147 0.830936,-9.86181 0.616906,-1.237969 1.214484,-1.892943 2.32,-2.54283 l 1.489065,-0.87536 8.36943,-0.09915 8.369431,-0.09915 0.528375,-1.6154129 c 1.346562,-4.1168755 4.556978,-7.0184307 8.748515,-7.90685645 2.207398,-0.4678734 14.5611,-0.4678734 16.768499,0 4.191536,0.88842575 7.401952,3.78998095 8.748515,7.90685645 l 0.528375,1.6154129 8.36943,0.09915 8.369431,0.09915 1.489066,0.87536 c 1.105513,0.649887 1.703094,1.304861 2.32,2.54283 0.829536,1.664663 0.830934,1.681266 0.830934,9.86181 0,8.180544 -0.0013,8.197147 -0.830934,9.861811 -0.593325,1.190647 -1.219031,1.894906 -2.188116,2.462829 l -1.357181,0.79536 H 59.767499 45.831227 l -0.203024,-1.082221 c -0.527792,-2.813366 -3.458836,-5.087149 -6.588202,-5.110854 -3.090083,-0.02341 -6.056755,2.278016 -6.588202,5.110854 l -0.203024,1.082221 -13.964388,-0.003 -13.964386,-0.003 z M 50.560001,9.5416795 c 0,-0.766071 -1.734966,-2.6022374 -3.002851,-3.1780077 -1.161459,-0.5274393 -2.168211,-0.5981414 -8.517149,-0.5981414 -6.348938,0 -7.355691,0.070702 -8.517148,0.5981414 -1.267886,0.5757703 -3.002852,2.4119367 -3.002852,3.1780077 0,0.272879 3.019179,0.369795 11.52,0.369795 8.500823,0 11.52,-0.09692 11.52,-0.369795 z"
     id="path161"
     inkscape:connector-curvature="0" />
</svg>
