<?xml version="1.0" encoding="UTF-8" standalone="no"?>
<!-- Created with Inkscape (http://www.inkscape.org/) -->

<svg
   xmlns:dc="http://purl.org/dc/elements/1.1/"
   xmlns:cc="http://creativecommons.org/ns#"
   xmlns:rdf="http://www.w3.org/1999/02/22-rdf-syntax-ns#"
   xmlns:svg="http://www.w3.org/2000/svg"
   xmlns="http://www.w3.org/2000/svg"
   xmlns:sodipodi="http://sodipodi.sourceforge.net/DTD/sodipodi-0.dtd"
   xmlns:inkscape="http://www.inkscape.org/namespaces/inkscape"
   version="1.1"
   id="svg110"
   width="63.529144"
   height="63.616489"
   viewBox="0 0 63.529144 63.616489"
   sodipodi:docname="adv-icon-4.svg"
   inkscape:version="0.92.4 (unknown)">
  <path
     style="stroke-width:0.31999999"
     d="M 27.684471,63.445016 C 14.603261,61.602753 4.20825,52.333022 0.81321,39.482613 0.12117,36.863211 0,35.713192 0,31.764571 0,27.815949 0.12117,26.665931 0.81321,24.046528 3.87727,12.448913 12.448914,3.8772672 24.046529,0.81321031 26.665932,0.12117143 27.81595,0 31.764572,0 35.713193,0 36.863212,0.12117143 39.482614,0.81321031 51.08023,3.8772672 59.651878,12.448913 62.715932,24.046528 c 0.692038,2.619403 0.813213,3.769421 0.813213,7.718043 0,3.984122 -0.118506,5.089101 -0.838355,7.817158 -3.632058,13.764637 -15.513364,23.401034 -29.590727,23.999712 -1.878519,0.07989 -4.315537,0.0185 -5.415592,-0.136425 z m 8.039467,-17.762307 c 3.633735,-0.633671 6.458788,-1.797268 9.816756,-4.043376 2.836732,-1.89746 6.456732,-5.430029 8.27992,-8.07994 L 54.863362,32.043809 53.969558,30.70419 C 53.477967,29.967399 51.625807,27.924571 49.853647,26.164571 45.001951,21.34616 40.594038,19.086723 34.406911,18.246781 29.498945,17.580493 24.46442,18.690964 19.392218,21.558589 16.744733,23.055373 11.257829,28.158893 9.55959,30.70419 L 8.66578,32.043809 9.7122,33.58419 c 1.636854,2.409514 5.969759,6.576509 8.663751,8.332007 3.020444,1.968224 5.942993,3.162387 9.166801,3.745587 3.274202,0.59232 4.881007,0.596429 8.181186,0.02093 z m -6.039366,-1.949511 c -4.680027,-1.149209 -7.857491,-3.992873 -9.168575,-8.205395 -1.939809,-6.232618 1.514051,-12.733737 7.805342,-14.691807 3.473028,-1.080927 7.215777,-0.489411 10.291047,1.626431 2.820944,1.94086 4.992186,6.041633 4.992186,9.428621 0,4.857456 -3.136301,9.441475 -7.667059,11.206173 -1.435891,0.559273 -5.062988,0.928179 -6.252941,0.635977 z m 5.28,-4.314518 c 3.842416,-1.739325 5.646224,-5.835757 4.410842,-10.016983 -0.519332,-1.757707 -3.17026,-4.408638 -4.927968,-4.927969 -3.228321,-0.953837 -6.010885,-0.282832 -8.293717,2 -4.012217,4.012218 -2.890033,10.417838 2.250843,12.84819 2.040958,0.964864 4.560147,1.002023 6.56,0.09676 z m -4.866765,-1.873987 c -1.484106,-0.475476 -2.731377,-1.568964 -3.42577,-3.003386 -0.860112,-1.776755 -0.844711,-3.250272 0.05254,-5.026348 1.18336,-2.342432 3.617864,-3.528408 6.235043,-3.037423 1.17928,0.221235 1.185021,0.229557 0.435226,0.630836 -0.843175,0.451253 -1.60152,1.627979 -1.618928,2.51209 -0.02185,1.109532 0.921971,2.405667 2.014256,2.766154 1.212464,0.40015 1.965101,0.219005 3.014403,-0.725509 l 0.72,-0.648097 v 1.074748 c 0,1.5844 -1.184874,3.764781 -2.529392,4.654541 -1.297645,0.858739 -3.562991,1.229898 -4.897373,0.802394 z"
     id="path203"
     inkscape:connector-curvature="0" />
</svg>
