<?xml version="1.0" encoding="UTF-8" standalone="no"?>
<!-- Created with Inkscape (http://www.inkscape.org/) -->

<svg
   xmlns:dc="http://purl.org/dc/elements/1.1/"
   xmlns:cc="http://creativecommons.org/ns#"
   xmlns:rdf="http://www.w3.org/1999/02/22-rdf-syntax-ns#"
   xmlns:svg="http://www.w3.org/2000/svg"
   xmlns="http://www.w3.org/2000/svg"
   xmlns:sodipodi="http://sodipodi.sourceforge.net/DTD/sodipodi-0.dtd"
   xmlns:inkscape="http://www.inkscape.org/namespaces/inkscape"
   version="1.1"
   id="svg90"
   width="70.624641"
   height="63.733871"
   viewBox="0 0 70.624641 63.733871"
   sodipodi:docname="adv-icon-6.svg"
   inkscape:version="0.92.4 (unknown)">
  <path
     style="stroke-width:0.31999999"
     d="m 24.8,63.516469 c -2.623918,-0.320912 -6.276312,-1.076032 -8.732177,-1.805344 l -1.569225,-0.466009 0.123381,-5.658487 c 0.110877,-5.085036 0.196899,-5.808835 0.848813,-7.142044 1.164757,-2.382013 2.761637,-3.993818 5.095377,-5.143002 l 2.139305,-1.05344 h 5.767263 c 7.267891,0 8.37942,0.313853 11.232419,3.171603 2.686208,2.690679 3.041955,3.815754 3.249379,10.276362 0.182448,5.682669 0.26272,5.431753 -2.021034,6.317385 C 37.318967,63.415193 29.742762,64.120985 24.8,63.516469 Z M 7.967439,54.695314 c -1.601908,-0.24752 -4.049908,-0.77392 -5.44,-1.169782 L 0,52.805785 0.01706,47.206965 c 0.01531,-5.023859 0.08765,-5.75392 0.704471,-7.109126 0.920463,-2.022336 3.052595,-4.277469 5.025622,-5.315546 1.531333,-0.805689 1.889553,-0.85406 7.087832,-0.95711 l 5.474984,-0.108531 0.213493,1.33511 c 0.244379,1.528263 1.244074,3.663811 2.207246,4.71512 0.761127,0.830775 0.830534,0.728624 -1.124513,1.655031 C 15.158081,43.529673 12.32,48.361605 12.32,53.826914 c 0,1.608026 0.189514,1.570215 -4.352561,0.8684 z m 36.938328,-2.258931 c -0.111594,-2.334051 -0.313846,-3.219898 -1.136566,-4.978003 -1.22944,-2.627251 -3.342119,-4.799767 -5.796205,-5.960368 l -1.847402,-0.87368 1.040957,-1.428096 c 0.572525,-0.78545 1.288944,-2.340301 1.592042,-3.455226 l 0.551084,-2.027133 4.985162,0.112288 c 4.673299,0.105261 5.087408,0.165908 6.619594,0.969431 2.051661,1.075955 4.375392,3.631174 5.105766,5.614403 0.419962,1.140342 0.594503,2.847635 0.70137,6.860512 l 0.142272,5.342368 -1.23192,0.52336 c -1.959696,0.832538 -5.506778,1.664346 -8.151162,1.911488 l -2.439245,0.227971 z m 13.760317,-8.31336 c -0.111939,-2.341254 -0.313552,-3.225226 -1.136883,-4.984643 -1.23785,-2.645229 -3.345018,-4.801139 -5.850874,-5.986221 -1.864768,-0.881894 -1.88967,-0.910758 -1.269805,-1.471727 0.797341,-0.721584 2.083392,-3.457479 2.365508,-5.032289 l 0.214972,-1.2 h 4.453495 c 5.654851,0 7.292173,0.52256 9.938858,3.172041 2.571836,2.574554 2.92511,3.753889 3.100614,10.350781 l 0.142675,5.362826 -1.206601,0.50415 c -1.94185,0.811357 -5.710362,1.686506 -8.255437,1.917136 l -2.360455,0.213898 z M 25.99935,40.991583 c -6.098291,-2.176266 -7.428874,-10.227911 -2.332593,-14.115034 3.964478,-3.023855 9.740981,-1.919191 12.245736,2.341802 0.770234,1.310292 0.887508,1.848063 0.887508,4.069792 0,2.221728 -0.117274,2.759501 -0.887508,4.069792 -1.951094,3.319123 -6.313603,4.918195 -9.913143,3.633648 z M 11.04,32.389788 C 9.469369,31.894732 6.790765,29.121047 6.309157,27.491017 4.644646,21.857376 8.35974,16.696922 14.08,16.696922 c 4.316459,0 8.13185,3.429534 8.152972,7.328448 0.0057,1.056707 -0.19204,1.490171 -1.06664,2.337867 -0.953477,0.924145 -1.632341,2.148837 -2.696112,4.863866 -0.55799,1.424138 -4.59602,2.056013 -7.43022,1.162685 z m 28.812455,0.0104 c -0.467398,-0.236519 -0.867798,-0.787454 -0.98497,-1.355282 -0.355849,-1.724519 -1.383094,-3.490762 -2.938236,-5.051998 -1.720221,-1.726961 -1.873393,-2.476241 -0.930503,-4.551863 1.711008,-3.766515 6.377251,-5.708727 10.41433,-4.334714 1.620841,0.55165 3.96393,2.712403 4.708202,4.341815 0.679465,1.487542 0.771488,4.141011 0.209564,6.042874 -0.519331,1.757708 -3.170259,4.408637 -4.927968,4.927968 -1.696176,0.501152 -4.541961,0.491513 -5.550419,-0.01882 z m 14.89849,-7.94717 c -1.597331,-0.250285 -2.09729,-0.641593 -2.106045,-1.648362 -0.0099,-1.132085 -1.459747,-3.633843 -2.953254,-5.095737 -2.144753,-2.099354 -1.992449,-3.801932 0.59726,-6.676703 1.625792,-1.804751 3.577216,-2.6584755 6.031095,-2.638528 2.347837,0.019085 4.08656,0.7093523 5.718147,2.270081 1.649907,1.578253 2.426579,3.335352 2.43304,5.504374 0.0075,2.522825 -0.462547,3.878311 -1.918582,5.532452 -2.064423,2.345308 -4.627933,3.249713 -7.801661,2.752423 z M 24.053334,23.63481 C 23.936,23.517476 23.84,23.037881 23.84,22.569043 c 0,-0.468839 -0.337069,-1.518232 -0.749043,-2.331984 -0.611719,-1.208299 -0.665587,-1.511576 -0.293828,-1.654233 0.593431,-0.227721 10.452311,-0.227721 11.045742,0 0.37176,0.142657 0.317891,0.445934 -0.293827,1.654233 C 33.137069,21.050811 32.8,22.142204 32.8,22.662376 c 0,0.897294 -0.0533,0.934871 -1.04,0.733177 -2.664227,-0.544605 -3.744395,-0.55736 -5.440652,-0.06424 -2.040615,0.593223 -1.98389,0.585626 -2.266014,0.303502 z m 1.963694,-6.299016 C 18.075931,15.116329 16.967833,4.6545101 24.275888,0.89727982 c 2.242508,-1.15292256 5.383446,-1.19885476 7.81617,-0.11430151 4.113779,1.83400039 6.16728,6.63696119 4.690573,10.97085169 -1.416586,4.157457 -6.476134,6.780832 -10.765603,5.581964 z"
     id="path245"
     inkscape:connector-curvature="0" />
</svg>
