<?xml version="1.0" encoding="UTF-8" standalone="no"?>
<!-- Created with Inkscape (http://www.inkscape.org/) -->

<svg
   xmlns:dc="http://purl.org/dc/elements/1.1/"
   xmlns:cc="http://creativecommons.org/ns#"
   xmlns:rdf="http://www.w3.org/1999/02/22-rdf-syntax-ns#"
   xmlns:svg="http://www.w3.org/2000/svg"
   xmlns="http://www.w3.org/2000/svg"
   xmlns:sodipodi="http://sodipodi.sourceforge.net/DTD/sodipodi-0.dtd"
   xmlns:inkscape="http://www.inkscape.org/namespaces/inkscape"
   version="1.1"
   id="svg80"
   width="67.235222"
   height="64"
   viewBox="0 0 67.235222 64"
   sodipodi:docname="adv-icon-2.svg"
   inkscape:version="0.92.4 (unknown)">
  <path
     style="stroke-width:0.31999999"
     d="M 0.09769,62.48 0.19519,60.96 2.06278,60.664042 3.93036,60.368083 3.78915,50.744042 C 3.71145,45.450819 3.53827,40.796 3.40424,40.4 3.20533,39.812304 2.92291,39.68 1.8673,39.68 H 0.57406 l 0.19791,-7.080678 c 0.10885,-3.894376 0.24036,-7.12313 0.29224,-7.175011 0.0519,-0.05188 1.51811,-0.34864 3.25828,-0.659465 l 3.16394,-0.565135 1.55438,1.740144 1.55438,1.740145 1.52,-1.686346 1.52,-1.686346 2.16291,0.0063 c 2.11144,0.0062 2.32221,-0.07337 8.856729,-3.343464 3.681602,-1.842396 6.744086,-3.199016 6.805521,-3.014711 0.06143,0.184305 3.477992,-1.557053 7.592347,-3.869683 6.502602,-3.655035 7.540749,-4.1446808 7.940343,-3.745089 0.484335,0.484338 0.09461,0.728483 -11.03785,6.914693 -1.98,1.100269 -3.599999,2.141381 -3.599999,2.313582 0,0.172201 0.147731,0.589132 0.328294,0.926514 0.298938,0.558573 -0.298058,0.926842 -6.676922,4.118798 l -7.005213,3.505377 -0.19896,2.500165 c -0.10943,1.37509 -0.29388,4.628683 -0.40989,7.230209 -0.11601,2.601523 -0.33386,4.806023 -0.48412,4.898887 -0.15025,0.09286 -0.27319,4.097034 -0.27319,8.89816 v 8.729322 l 1.84,0.291792 1.84,0.291795 0.0975,1.52 0.0975,1.52 h -1.25385 c -0.68963,0 -2.02854,-0.146915 -2.97538,-0.32648 -1.17045,-0.221971 -1.75635,-0.221971 -1.83034,0 C 15.39082,63.853085 14.56404,64 13.61345,64 H 11.8851 l -0.085,-9.04 -0.085,-9.04 h -0.96001 -0.96 l -0.085,9.04 -0.085,9.04 H 7.89674 c -0.95059,0 -1.77732,-0.146915 -1.83717,-0.32648 -0.074,-0.221971 -0.65989,-0.221971 -1.83034,0 C 3.28239,63.853085 1.94347,64 1.25385,64 H 0 Z m 20.2233,-22.986173 c 0.10683,-0.278393 0.19423,-0.853401 0.19423,-1.277795 V 37.44441 l 22,-0.08221 21.999999,-0.08221 v -17.28 -17.28 L 36.75522,2.638223 8.99522,2.556456 v 1.4070767 c 0,1.2195238 -0.10267,1.4328457 -0.77027,1.6004025 C 7.8013,5.6702645 7.2253,5.8452818 6.94495,5.9528623 6.50044,6.1234351 6.43522,5.7550988 6.43522,3.074227 V 0 h 30.4 30.399999 V 20 40 H 43.680983 C 22.33407,40 20.14495,39.95257 20.32099,39.493827 Z m 30.59423,-6.541565 v -1.927737 l 5.359999,0.08774 5.36,0.08774 0.09597,1.84 0.09597,1.84 H 56.371187 50.91522 Z M 7.23522,21.97429 C 2.07716,19.481194 1.05209,12.987417 5.19603,9.0562182 c 3.22585,-3.0602358 8.74526,-2.7503926 11.65976,0.654543 3.21267,3.7532798 2.32372,9.2546538 -1.9193,11.8779158 -2.18605,1.351528 -5.37273,1.51109 -7.70127,0.385613 z"
     id="path140"
     inkscape:connector-curvature="0" />
</svg>
