<?xml version="1.0" encoding="UTF-8" standalone="no"?>
<!-- Created with Inkscape (http://www.inkscape.org/) -->

<svg
   xmlns:dc="http://purl.org/dc/elements/1.1/"
   xmlns:cc="http://creativecommons.org/ns#"
   xmlns:rdf="http://www.w3.org/1999/02/22-rdf-syntax-ns#"
   xmlns:svg="http://www.w3.org/2000/svg"
   xmlns="http://www.w3.org/2000/svg"
   xmlns:sodipodi="http://sodipodi.sourceforge.net/DTD/sodipodi-0.dtd"
   xmlns:inkscape="http://www.inkscape.org/namespaces/inkscape"
   version="1.1"
   id="svg100"
   width="64"
   height="64.000008"
   viewBox="0 0 64 64.000008"
   sodipodi:docname="adv-icon-5.svg"
   inkscape:version="0.92.4 (unknown)">
  <path
     style="stroke-width:0.31999999"
     d="m 1.28,63.35208 c 0,-0.40544 0.315401,-0.767837 0.842771,-0.968342 0.534247,-0.20312 6.864489,-0.28808 17.291807,-0.23208 14.207761,0.0763 16.490363,0.153744 16.752328,0.568342 C 36.985888,64.016144 37.20393,64 18.88,64 1.421619,64 1.28,63.9948 1.28,63.35208 Z M 47.249526,63.12 c -0.183145,-0.8708 1.192167,-7.311818 2.374391,-11.12 0.327827,-1.056 0.693417,-2.784 0.812422,-3.84 0.546736,-4.851501 1.938823,-4.377731 2.873648,0.97799 0.271143,1.553412 0.634861,3.089476 0.808263,3.413479 0.173401,0.324003 0.521622,1.762749 0.773827,3.197216 0.252201,1.434464 0.742573,3.428822 1.089712,4.431907 0.526973,1.52273 0.568989,1.988506 0.254531,2.8216 L 55.859686,64 h -4.212537 -4.212541 z m -5.573184,-2.488893 c -0.725372,-0.620893 -1.408076,-1.40999 -1.51712,-1.753555 -0.12768,-0.402291 0.363655,-1.794589 1.380218,-3.911107 C 42.4076,53.158899 43.863706,50.024 44.775229,48 c 2.363904,-5.248963 2.820307,-5.833674 3.525299,-4.516384 0.239184,0.446918 0.07954,1.506074 -0.61496,4.08 -1.505312,5.578909 -2.297245,8.77143 -2.72775,10.996384 -0.71433,3.69183 -1.1021,3.936573 -3.281476,2.071107 z m 17.534916,0.50993 C 59.029066,60.800608 58.88,60.157939 58.88,59.712883 58.88,59.26783 58.60495,58.205888 58.268781,57.353018 57.932608,56.500144 57.563965,55.090813 57.449574,54.221171 57.335181,53.351526 56.905709,51.488 56.49519,50.08 c -1.331683,-4.567443 -1.60358,-6.155622 -1.147859,-6.704736 0.25409,-0.306157 0.576979,-0.390342 0.869427,-0.226682 0.255876,0.143197 1.804544,3.201344 3.441492,6.795885 2.073529,4.553229 3.18335,6.631344 3.659008,6.851415 C 63.837322,57.036496 64,57.398669 64,58.315882 64,59.099901 63.85263,59.52 63.5776,59.52 c -0.23232,0 -1.011213,0.504 -1.73087,1.12 -1.481524,1.268131 -2.156282,1.39641 -2.635472,0.501037 z M 0.72,59.298138 0,59.155488 0.0012,46.937744 0.0024,34.72 1.364563,34.16 C 2.60112,33.651638 4.240943,33.6 19.147979,33.6 h 16.421254 l 0.935382,0.935386 0.935386,0.935382 v 11.189165 c 0,10.538992 -0.03554,11.233062 -0.611581,11.944617 L 36.216843,59.36 18.828421,59.40039 C 9.26479,59.42261 1.116001,59.37659 0.720001,59.298134 Z M 33.768941,57.217699 C 35.379075,56.484077 35.52,55.71521 35.52,47.664253 35.52,39.592502 35.327498,38.532426 33.729523,37.804339 32.539325,37.262048 4.932151,37.303456 3.84,37.849169 3.4,38.069025 2.784326,38.7509 2.471835,39.364452 c -0.505016,0.991559 -0.558366,1.956608 -0.48,8.682624 0.08212,7.048103 0.132058,7.615815 0.728165,8.27777 0.352,0.39088 0.928,0.828569 1.28,0.97264 1.076361,0.440547 28.789958,0.366269 29.768941,-0.07979 z M 5.421519,54.38152 c -0.627622,-0.627622 -0.653867,-0.956339 -0.56,-7.01407 0.05416,-3.495575 0.217925,-6.475258 0.363911,-6.62152 0.411671,-0.412445 10.466476,-0.642173 11.236721,-0.25673 0.628049,0.314285 0.661778,0.633158 0.744583,7.039366 0.07789,6.026215 0.03089,6.751008 -0.461162,7.110804 -0.384073,0.280841 -2.060498,0.40063 -5.606734,0.40063 -4.6795,0 -5.108214,-0.04938 -5.717319,-0.65848 z M 21.016376,54.64 c -0.699203,-0.512285 -0.956642,-2.519254 -0.527554,-4.112762 0.376403,-1.397856 1.171027,-1.777318 3.002385,-1.433753 1.310007,0.24576 1.468793,0.598253 1.468793,3.260608 0,1.918707 -0.05695,2.083398 -0.820832,2.373827 -1.127937,0.428842 -2.469015,0.391085 -3.122792,-0.08792 z M 28.48,54.72677 c -0.641558,-0.405555 -0.673276,-4.475523 -0.04082,-5.23759 0.660973,-0.796423 3.429657,-0.732183 3.86956,0.08978 0.458951,0.857559 0.420029,4.604266 -0.05274,5.077037 -0.455138,0.455136 -3.089846,0.504518 -3.776,0.07077 z m -7.249436,-8.688435 c -0.37919,-0.191872 -0.753528,-0.684138 -0.831863,-1.09392 -0.273547,-1.430966 0.01676,-3.737021 0.535791,-4.256051 0.612506,-0.612506 2.827893,-0.643933 3.543223,-0.05026 0.654297,0.543021 0.6786,4.560605 0.03084,5.098202 -0.651364,0.540582 -2.474568,0.708573 -3.277989,0.302032 z M 28.48,45.759999 c -0.711614,-0.711613 -0.884998,-3.153942 -0.32792,-4.619168 0.281068,-0.739267 0.481396,-0.820832 2.016,-0.820832 0.937156,0 1.87672,0.1728 2.08792,0.384 0.590842,0.590842 0.499664,4.574621 -0.118858,5.193142 C 31.40594,46.628345 29.26818,46.548178 28.48,45.759999 Z m 19.92,-6.29193 c -0.563117,-0.227222 -0.497763,-0.962083 0.106173,-1.193833 0.278393,-0.106832 1.833593,-0.194237 3.456,-0.194237 3.064755,0 4.042486,0.343235 3.35103,1.176387 -0.250096,0.301347 -1.240758,0.41632 -3.432384,0.398349 C 50.186368,39.640845 48.62,39.556845 48.4,39.468069 Z m -0.184237,-4.66807 c -0.493446,-0.36113 -0.557664,-1.488336 -0.660841,-11.6 C 47.465452,14.432172 47.32857,11.482805 46.924582,9.6183542 46.139254,5.9939648 46.846092,4.1705552 49.966371,1.7715191 50.644867,1.2498552 51.2,0.6378553 51.2,0.4115192 c 0,-0.5303769 0.953642,-0.5415923 0.979552,-0.01152 0.01075,0.22 0.609798,0.8319999 1.33121,1.3599999 3.290054,2.4079895 3.885971,4.2518487 2.999203,9.2799999 -0.392221,2.223969 -0.508154,5.183036 -0.508944,12.990404 -0.0012,12.082466 0.342451,11.169596 -4.205056,11.169596 -1.922083,0 -3.233907,-0.146563 -3.580202,-0.4 z M 52.64,7.039999 c 0,-0.9258301 -0.127878,-1.138128 -0.737613,-1.2245645 -1.362729,-0.1931811 -2.192214,1.206737 -1.264633,2.1343168 0.218761,0.2187639 0.758761,0.3555639 1.2,0.304 C 52.523414,8.1736233 52.64,7.9972384 52.64,7.039999 Z M 1.52,30.493637 0,29.986765 V 15.871499 1.7562313 L 0.96,1.331294 C 1.488,1.0975785 1.92,0.7024265 1.92,0.4531784 1.92,0.0679743 4.463906,0 18.88,0 c 12.173683,0 16.96,0.099848 16.96,0.3538061 0,0.1945934 0.36,0.7816418 0.8,1.3045521 l 0.8,0.950746 V 15.715811 c 0,14.446888 0.02227,14.27916 -1.988867,14.980246 -0.654874,0.22829 -6.269984,0.337304 -16.698884,0.324198 C 5.305247,31.003355 2.820861,30.927435 1.52,30.493638 Z m 32.375098,-1.412908 c 0.597366,-0.208243 1.155516,-0.687816 1.327753,-1.140832 C 35.386282,27.510038 35.52,21.972633 35.52,15.634552 V 4.1107693 L 34.584614,3.1753846 33.649232,2.24 H 18.76246 3.875689 L 2.977845,3.0119802 2.08,3.7839603 1.98818,15.01389 c -0.103763,12.690702 0.0014,13.602284 1.622431,14.07085 1.538987,0.444836 29.00736,0.441199 30.284487,-0.004 z M 5.298146,25.528798 C 4.875301,24.925103 4.8,23.42557 4.8,15.608798 4.8,6.8266666 4.82965,6.3703472 5.44,5.76 6.058826,5.1411744 6.506667,5.12 18.976,5.12 c 9.603556,0 12.994038,0.098038 13.28,0.384 0.548902,0.5489011 0.548902,19.803099 0,20.352 -0.2861,0.2861 -3.707968,0.384 -13.421855,0.384 H 5.796291 Z m 20.57045,-3.737173 c 0.0891,-0.630448 -1.002284,-1.881598 -6.08,-6.970031 C 14.671207,9.6934054 13.461525,8.6355213 12.8,8.7099686 c -0.619258,0.069691 -0.823982,0.3003117 -0.906152,1.0207741 -0.09483,0.8314603 0.536657,1.5750113 5.92,6.9705813 5.413618,5.425913 6.123732,6.030632 6.986152,5.949257 0.737597,-0.0696 0.985158,-0.26859 1.068596,-0.858956 z m -7.900104,-0.94764 c 0.244439,-0.665872 -0.03761,-1.079985 -2.365481,-3.47313 -2.79939,-2.877879 -3.859438,-3.554769 -4.601935,-2.938551 -0.900774,0.747576 -0.416519,1.675203 2.350842,4.503217 2.197774,2.245944 2.956538,2.833039 3.565481,2.758795 0.469731,-0.05727 0.882568,-0.391255 1.051093,-0.850331 z m 7.885824,-5.812067 c 0.07595,-0.650719 -0.461291,-1.351772 -2.758795,-3.6 C 20.204465,8.6028666 19.185439,8.0956518 18.611461,9.2 c -0.46311,0.891033 -0.01736,1.602683 2.687839,4.291186 2.172173,2.158767 2.679947,2.51224 3.5007,2.436917 0.759493,-0.0697 0.979699,-0.25688 1.054316,-0.896185 z"
     id="path224"
     inkscape:connector-curvature="0" />
</svg>
