<?xml version="1.0" encoding="UTF-8" standalone="no"?>
<!-- Created with Inkscape (http://www.inkscape.org/) -->

<svg
   xmlns:dc="http://purl.org/dc/elements/1.1/"
   xmlns:cc="http://creativecommons.org/ns#"
   xmlns:rdf="http://www.w3.org/1999/02/22-rdf-syntax-ns#"
   xmlns:svg="http://www.w3.org/2000/svg"
   xmlns="http://www.w3.org/2000/svg"
   xmlns:sodipodi="http://sodipodi.sourceforge.net/DTD/sodipodi-0.dtd"
   xmlns:inkscape="http://www.inkscape.org/namespaces/inkscape"
   version="1.1"
   id="svg120"
   width="86.294617"
   height="63.941845"
   viewBox="0 0 86.294617 63.941845"
   sodipodi:docname="adv-icon-3.svg"
   inkscape:version="0.92.4 (unknown)">
  <path
     style="stroke-width:0.31999999"
     d="m 77.916697,61.651868 -1.732656,-2.28998 1.081997,-3.212896 1.081994,-3.212896 V 41.644361 30.352627 l 1.589363,-0.80539 c 0.874147,-0.442965 1.666147,-0.805391 1.76,-0.805391 0.09385,0 0.170637,5.516989 0.170637,12.259971 v 12.259971 l 0.96,2.840058 c 0.528,1.562032 0.96,3.007568 0.96,3.212307 0,0.619184 -3.187674,4.627693 -3.680067,4.627693 -0.252237,0 -1.238308,-1.03049 -2.191268,-2.289978 z m -49.968666,-9.348019 -12.800004,-6.165773 -0.087,-6.175052 c -0.069,-4.897111 -0.003,-6.140695 0.32,-6.009037 0.22388,0.09131 6.557037,3.128457 14.073696,6.749219 l 13.666654,6.583203 13.970346,-6.712281 c 7.683649,-3.691754 14.028763,-6.712282 14.100216,-6.712282 0.07145,0 0.0908,2.757446 0.043,6.127658 l -0.08691,6.127657 -12.800001,6.173783 -12.8,6.173785 -2.4,0.0026 -2.4,0.0026 -12.8,-6.165769 z M 21.131684,32.819657 C -0.07669348,22.560372 -0.08462348,22.556168 0.01168652,21.629573 c 0.0928,-0.892646 0.89246,-1.309955 21.61240248,-11.278259 L 43.140149,0 64.664089,10.366414 c 20.572314,9.908088 21.528196,10.406645 21.620148,11.276357 0.09566,0.904803 -0.02458,0.968094 -21.287604,11.204509 C 53.235542,38.509292 43.328249,43.12856 42.980428,43.112323 42.63261,43.096103 32.800674,38.464384 21.131684,32.819657 Z"
     id="path182"
     inkscape:connector-curvature="0" />
</svg>
